<svg width="31" height="43" viewBox="0 0 31 43" fill="none" xmlns="http://www.w3.org/2000/svg">
<path d="M19.7802 26.9828C24.0233 26.2263 32.0548 23.2834 30.2363 17.5641C29.9711 16.6941 28.7815 14.9087 26.1448 14.7271C26.2963 12.7223 25.5765 8.32692 21.485 6.78361C21.5987 6.48099 21.8942 5.89847 22.1669 5.98925C22.5079 6.10273 26.0311 5.19489 23.7581 1.56357C23.114 0.920524 21.2122 0.292608 18.7573 2.92532C18.2269 3.53054 17.0752 5.10411 16.7116 6.55664C15.7266 6.63229 13.5975 6.89708 12.961 7.35099C10.8774 5.4975 5.98269 2.67566 3.07316 6.2162C2.61855 7.04838 2.32305 8.917 4.77796 9.73405C5.15681 9.84753 6.27818 9.84753 7.73295 8.9397C8.12293 8.9397 8.77384 9.05994 9.43775 9.42422C6.97526 12.2888 3.43685 19.3798 8.98314 24.8267C8.14968 25.1815 6.1418 26.2405 4.77796 27.6379C4.21701 25.9639 2.83097 22.6596 1.77439 22.8343C0.717821 23.009 0.967289 25.5272 1.2241 26.7645C1.53964 27.9654 2.35122 30.6073 3.07316 31.568C3.2 34.6612 4.6505 40.9131 9.43775 41.1751C10.3318 41.1388 11.8779 40.5201 10.9094 38.3367L13.4407 37.6817C13.1839 38.7006 12.7804 40.8258 13.2206 41.1751C13.7709 41.6118 16.3023 42.5944 17.623 41.5027C18.9437 40.4109 19.635 38.9917 18.1733 38.3367C18.0586 38.2853 17.9497 38.2419 17.8465 38.2056C18.5805 38.4339 19.3492 38.67 19.7141 38.7734C20.4846 38.555 22.0254 37.6817 22.0254 35.9349C22.0254 34.1882 20.4112 34.4793 19.6041 34.8432C20.4185 33.242 21.594 29.4283 19.7802 26.9828Z" fill="#F7C645"/>
<path d="M9.43775 9.42422C8.77384 9.05994 8.12293 8.9397 7.73295 8.9397C6.27819 9.84753 5.15681 9.84753 4.77796 9.73405C2.32305 8.917 2.61855 7.04838 3.07316 6.2162C5.98269 2.67566 10.8774 5.4975 12.961 7.35099C13.5975 6.89708 15.7266 6.63229 16.7116 6.55664C17.0752 5.10411 18.2269 3.53054 18.7573 2.92532C21.2122 0.292608 23.114 0.920524 23.7581 1.56357C26.0311 5.19489 22.5079 6.10273 22.1669 5.98925C21.8942 5.89847 21.5987 6.48099 21.485 6.78361C25.5765 8.32692 26.2963 12.7223 26.1448 14.7271C28.7815 14.9087 29.9711 16.6941 30.2363 17.5641C32.0548 23.2834 24.0233 26.2263 19.7802 26.9828C21.594 29.4283 20.4185 33.242 19.6041 34.8432C20.4112 34.4793 22.0254 34.1882 22.0254 35.9349C22.0254 37.6817 20.4846 38.555 19.7141 38.7734C19.0978 38.5987 17.3295 38.0456 16.5224 37.7908L16.7116 34.6249L16.3023 38.3367C16.4387 38.1183 17.0039 37.8127 18.1733 38.3367C19.635 38.9917 18.9437 40.4109 17.623 41.5027C16.3023 42.5944 13.7709 41.6118 13.2206 41.1751C12.7804 40.8258 13.1839 38.7006 13.4407 37.6817L10.9094 38.3367C11.8779 40.5201 10.3318 41.1388 9.43775 41.1751C4.6505 40.9131 3.20001 34.6612 3.07316 31.568C2.35122 30.6073 1.53964 27.9654 1.2241 26.7645C0.96729 25.5272 0.717821 23.009 1.77439 22.8343C2.83097 22.6596 4.21701 25.9639 4.77796 27.6379C6.1418 26.2405 8.14968 25.1815 8.98313 24.8267C3.43685 19.3798 6.97526 12.2888 9.43775 9.42422ZM9.43775 9.42422C10.0637 9.76769 10.7013 10.3281 11.1425 11.2093C10.991 10.7616 10.4379 9.77793 9.43775 9.42422Z" stroke="#0F3E4D"/>
<path d="M18.4546 12.2755C16.7714 12.9304 17.6691 15.8769 18.4546 16.75C18.2302 15.9861 17.9833 14.3709 18.7912 14.0217C19.5992 13.6725 20.1004 14.7492 20.25 15.3313C19.9807 12.5374 18.9408 12.13 18.4546 12.2755Z" fill="#0F3E4D"/>
<path d="M23.1075 11.7642C22.0363 12.128 22.6076 13.765 23.1075 14.25C22.9647 13.8256 22.8076 12.9283 23.3217 12.7343C23.8358 12.5403 24.1548 13.1385 24.25 13.4618C24.0786 11.9097 23.4169 11.6833 23.1075 11.7642Z" fill="#0F3E4D"/>
<path d="M25.3848 17.5396C26.6405 16.7558 27.3032 16.9953 27.4776 17.213C27.8962 17.5396 28.0008 19.6083 26.5358 19.9349C25.3638 20.1962 24.5825 19.6083 24.3384 19.2816C24.1639 19.0276 24.1291 18.3235 25.3848 17.5396Z" fill="#0F3E4D"/>
<path d="M10.9998 38.25C10.34 38.1333 8.91642 37.62 8.49976 36.5" stroke="#0F3E4D" stroke-linecap="round"/>
<path d="M24.5002 21.8538C23.4937 22.4941 20.9846 23.2198 19.0002 21" stroke="#0F3E4D" stroke-linecap="round"/>
</svg>
